<svg xmlns="http://www.w3.org/2000/svg" viewBox="0 0 88.8 88.8" width="100" height="100">
  <path data-name="Контур 72" d="M87 86h-9V37a2 2 0 0 0-1-1H56V2a2 2 0 0 0-1-2H16a2 2 0 0 0-1 2v84H2a2 2 0 0 0 0 3h85a2 2 0 0 0 0-3Zm-56 0h-6V73a2 2 0 0 1 2-2h3a2 2 0 0 1 1 1Zm6-49v49h-3V73a4 4 0 0 0-4-5h-3a4 4 0 0 0-5 4v14h-4V3h35v33H39a2 2 0 0 0-2 1Zm38 49H40V39h36Z"/>
  <path data-name="Контур 73" d="M47 21h-9a2 2 0 0 0-1 1v9a2 2 0 0 0 2 2h8a2 2 0 0 0 2-2v-9a2 2 0 0 0-2-1Zm-1 9h-6v-6h6Z"/>
  <path data-name="Контур 74" d="M47 6h-9a2 2 0 0 0-1 1v9a2 2 0 0 0 2 2h8a2 2 0 0 0 2-2V7a2 2 0 0 0-2-1Zm-1 9h-6V9h6Z"/>
  <path data-name="Контур 75" d="M33 21h-9a2 2 0 0 0-2 1v9a2 2 0 0 0 2 2h9a2 2 0 0 0 1-2v-9a2 2 0 0 0-1-1Zm-2 9h-6v-6h6Z"/>
  <path data-name="Контур 76" d="M33 6h-9a2 2 0 0 0-2 1v9a2 2 0 0 0 2 2h9a2 2 0 0 0 1-2V7a2 2 0 0 0-1-1Zm-2 9h-6V9h6Z"/>
  <path data-name="Контур 77" d="M33 36h-9a2 2 0 0 0-2 1v9a2 2 0 0 0 2 2h9a2 2 0 0 0 1-2v-9a2 2 0 0 0-1-1Zm-2 9h-6v-6h6Z"/>
  <path data-name="Контур 78" d="M33 50h-9a2 2 0 0 0-2 2v9a2 2 0 0 0 2 1h9a2 2 0 0 0 1-1v-9a2 2 0 0 0-1-2Zm-2 9h-6v-6h6Z"/>
  <path data-name="Контур 79" d="M61 68h9a2 2 0 0 0 1-1v-9a2 2 0 0 0-1-2h-9a2 2 0 0 0-2 2v9a2 2 0 0 0 2 1Zm1-9h6v6h-6Z"/>
  <path data-name="Контур 80" d="M61 53h9a2 2 0 0 0 1-1v-9a2 2 0 0 0-1-1h-9a2 2 0 0 0-2 1v9a2 2 0 0 0 2 1Zm1-9h6v6h-6Z"/>
  <path data-name="Контур 81" d="M61 83h9a2 2 0 0 0 1-2v-8a2 2 0 0 0-1-2h-9a2 2 0 0 0-2 1v10a2 2 0 0 0 2 1Zm1-9h6v6h-6Z"/>
  <path data-name="Контур 82" d="M46 68h9a2 2 0 0 0 1-1v-9a2 2 0 0 0-1-2h-9a2 2 0 0 0-2 2v9a2 2 0 0 0 2 1Zm1-9h6v6h-6Z"/>
  <path data-name="Контур 83" d="M46 53h9a2 2 0 0 0 1-1v-9a2 2 0 0 0-1-1h-9a2 2 0 0 0-2 1v9a2 2 0 0 0 2 1Zm1-9h6v6h-6Z"/>
  <path data-name="Контур 84" d="M46 83h9a2 2 0 0 0 1-2v-8a2 2 0 0 0-1-2h-9a2 2 0 0 0-2 1v10a2 2 0 0 0 2 1Zm1-9h6v6h-6Z"/>
</svg>