<svg xmlns="http://www.w3.org/2000/svg" viewBox="0 0 88.8 88.8" width="100" height="100">
  <g data-name="Сгруппировать 15">
    <g data-name="Сгруппировать 14">
      <path data-name="Контур 72" d="M87.3 85.9h-8.8V37a1.5 1.5 0 0 0-1.5-1.5H56.3v-34A1.5 1.5 0 0 0 54.8 0H16.3a1.5 1.5 0 0 0-1.5 1.5v84.4H1.5a1.5 1.5 0 0 0 0 3h85.8a1.5 1.5 0 0 0 0-3Zm-56.2 0h-6V72.5a1.5 1.5 0 0 1 1.5-1.4h3a1.5 1.5 0 0 1 1.5 1.4ZM37 37v49h-3V72.5a4.4 4.4 0 0 0-4.5-4.4h-3a4.4 4.4 0 0 0-4.4 4.4V86h-4.4V3h35.5v32.6H38.5A1.5 1.5 0 0 0 37 37Zm38.4 49H40V38.5h35.5Z"/>
      <path data-name="Контур 73" d="M47.4 20.7h-9a1.5 1.5 0 0 0-1.4 1.5v8.9a1.5 1.5 0 0 0 1.5 1.5h8.9a1.5 1.5 0 0 0 1.4-1.5v-8.9a1.5 1.5 0 0 0-1.4-1.5Zm-1.5 9h-6v-6h6Z"/>
      <path data-name="Контур 74" d="M47.4 6h-9A1.5 1.5 0 0 0 37 7.3v8.9a1.5 1.5 0 0 0 1.5 1.5h8.9a1.5 1.5 0 0 0 1.5-1.5V7.4a1.5 1.5 0 0 0-1.5-1.5Zm-1.5 8.8h-6v-6h6Z"/>
      <path data-name="Контур 75" d="M32.6 20.7h-9a1.5 1.5 0 0 0-1.4 1.5v8.9a1.5 1.5 0 0 0 1.5 1.5h8.9A1.5 1.5 0 0 0 34 31v-8.9a1.5 1.5 0 0 0-1.4-1.5Zm-1.5 9h-6v-6h6Z"/>
      <path data-name="Контур 76" d="M32.6 6h-9a1.5 1.5 0 0 0-1.4 1.4v8.9a1.5 1.5 0 0 0 1.5 1.5h8.9a1.5 1.5 0 0 0 1.4-1.5V7.4a1.5 1.5 0 0 0-1.4-1.5ZM31 14.7h-6v-6h6Z"/>
      <path data-name="Контур 77" d="M32.6 35.5h-9a1.5 1.5 0 0 0-1.4 1.5v9a1.5 1.5 0 0 0 1.5 1.5h8.9A1.5 1.5 0 0 0 34 46v-9a1.5 1.5 0 0 0-1.4-1.5Zm-1.5 9h-6v-6h6Z"/>
      <path data-name="Контур 78" d="M32.6 50.3h-9a1.5 1.5 0 0 0-1.4 1.5v8.9a1.5 1.5 0 0 0 1.5 1.5h8.9a1.5 1.5 0 0 0 1.4-1.5v-8.9a1.5 1.5 0 0 0-1.4-1.5Zm-1.5 9h-6v-6h6Z"/>
      <path data-name="Контур 79" d="M60.7 68h8.9a1.5 1.5 0 0 0 1.5-1.4v-8.9a1.5 1.5 0 0 0-1.5-1.4h-9a1.5 1.5 0 0 0-1.4 1.4v9a1.5 1.5 0 0 0 1.5 1.4Zm1.5-8.8H68v6h-6Z"/>
      <path data-name="Контур 80" d="M60.7 53.3h8.9a1.5 1.5 0 0 0 1.5-1.5V43a1.5 1.5 0 0 0-1.5-1.5h-9a1.5 1.5 0 0 0-1.4 1.5v9a1.5 1.5 0 0 0 1.5 1.4Zm1.5-8.9H68v6h-6Z"/>
      <path data-name="Контур 81" d="M60.7 82.9h8.9a1.5 1.5 0 0 0 1.5-1.5v-8.9a1.5 1.5 0 0 0-1.5-1.4h-9a1.5 1.5 0 0 0-1.4 1.4v9a1.5 1.5 0 0 0 1.5 1.4Zm1.5-8.9H68v6h-6Z"/>
      <path data-name="Контур 82" d="M45.9 68h8.9a1.5 1.5 0 0 0 1.5-1.4v-8.9a1.5 1.5 0 0 0-1.5-1.4h-9a1.5 1.5 0 0 0-1.4 1.4v9A1.5 1.5 0 0 0 46 68Zm1.5-8.8h5.9v6h-6Z"/>
      <path data-name="Контур 83" d="M45.9 53.3h8.9a1.5 1.5 0 0 0 1.5-1.5V43a1.5 1.5 0 0 0-1.5-1.5h-9a1.5 1.5 0 0 0-1.4 1.5v9a1.5 1.5 0 0 0 1.5 1.4Zm1.5-8.9h5.9v6h-6Z"/>
      <path data-name="Контур 84" d="M45.9 82.9h8.9a1.5 1.5 0 0 0 1.5-1.5v-8.9a1.5 1.5 0 0 0-1.5-1.4h-9a1.5 1.5 0 0 0-1.4 1.4v9a1.5 1.5 0 0 0 1.5 1.4Zm1.5-8.9h5.9v6h-6Z"/>
    </g>
  </g>
</svg>