<svg id="improvement" xmlns="http://www.w3.org/2000/svg" width="64.399" height="43.994" viewBox="0 0 64.399 43.994">
  <path id="Контур_66" data-name="Контур 66" d="M64.4,52.166V64.553H61.465v-7.52L29.608,88.89,19.456,78.737,2.074,96.119,0,94.045,19.456,74.589,29.608,84.741,59.249,55.1H52.012V52.166ZM20.183,83.736,9.834,94.085l2.074,2.074L22.258,85.81Zm38.145-17.1L30.876,94.085l2.074,2.074L60.4,68.708ZM41.7,94.086,43.77,96.16l20.2-20.2L61.9,73.884Zm10.816,0,2.074,2.074,9.073-9.073-2.074-2.074Zm-31.982-.04L22.6,96.121l4.574-4.574L25.1,89.472Z" transform="translate(0 -52.166)"/>
</svg>
