<svg xmlns="http://www.w3.org/2000/svg" xmlns:xlink="http://www.w3.org/1999/xlink" width="168.443" height="45.256" viewBox="0 0 168.443 45.256"><defs><linearGradient id="a" x1="-0.086" y1="0.143" x2="1.088" y2="0.857" gradientUnits="objectBoundingBox"><stop offset="0" stop-color="#f2e808"/><stop offset="1" stop-color="#65b761"/></linearGradient><linearGradient id="b" x1="0.127" y1="0.154" x2="0.872" y2="0.845" gradientUnits="objectBoundingBox"><stop offset="0" stop-color="#f7d600"/><stop offset="1" stop-color="#d9312d"/></linearGradient><linearGradient id="c" x1="0.277" y1="0.077" x2="0.724" y2="0.923" gradientUnits="objectBoundingBox"><stop offset="0" stop-color="#31afb3"/><stop offset="1" stop-color="#128ac7"/></linearGradient><linearGradient id="d" x1="-0.113" y1="0.146" x2="1.114" y2="0.853" gradientUnits="objectBoundingBox"><stop offset="0" stop-color="#cf336b"/><stop offset="0.412" stop-color="#8e3879"/><stop offset="1" stop-color="#4d3d87"/></linearGradient><linearGradient id="e" x1="0.827" y1="0.293" x2="0.175" y2="0.707" xlink:href="#a"/><linearGradient id="f" x1="0.242" y1="0.133" x2="0.757" y2="0.868" xlink:href="#b"/><linearGradient id="g" x1="-0.021" y1="0.286" x2="1.02" y2="0.714" xlink:href="#b"/><linearGradient id="h" x1="0.24" y1="0.007" x2="0.758" y2="0.993" xlink:href="#b"/><linearGradient id="i" x1="1.229" y1="0.141" x2="-0.229" y2="0.859" xlink:href="#d"/><linearGradient id="j" x1="1.54" y1="0.627" x2="-0.54" y2="0.372" xlink:href="#d"/><linearGradient id="k" x1="0.641" y1="0.631" x2="0.359" y2="0.369" xlink:href="#c"/><linearGradient id="l" x1="0.827" y1="1.494" x2="0.173" y2="-0.494" xlink:href="#c"/><linearGradient id="m" x1="1.123" y1="0.811" x2="-0.123" y2="0.19" gradientUnits="objectBoundingBox"><stop offset="0" stop-color="#31afb3"/><stop offset="1" stop-color="#0079b5"/></linearGradient><linearGradient id="n" x1="0.418" y1="-0.224" x2="0.583" y2="1.225" xlink:href="#a"/></defs><g transform="translate(3.323 3.446)"><path d="M10542,11391h12.336l-12.336,12.307Z" transform="translate(-10542 -11390.999)" fill-rule="evenodd" fill="url(#a)"/><path d="M10644,11504.737l10.736-10.737,14.8,25.442Z" transform="translate(-10640.86 -11490.831)" fill-rule="evenodd" fill="url(#b)"/><path d="M10542,11910l24.274,13.937H10542Z" transform="translate(-10542 -11894.033)" fill-rule="evenodd" fill="url(#c)"/><path d="M11057,11391l14.091,24.183V11391Z" transform="translate(-11041.155 -11390.999)" fill-rule="evenodd" fill="url(#d)"/><path d="M10542,11396.383l12.336-5.384-12.336,12.307Z" transform="translate(-10542 -11390.999)" fill-rule="evenodd" fill="url(#e)"/><path d="M10644,11504.737l10.736-10.737,7.6,21.289Z" transform="translate(-10640.86 -11490.831)" fill-rule="evenodd" fill="url(#f)"/><path d="M10717,11885l15.659.337,2.031,3.477-5.046,3.478Z" transform="translate(-10711.616 -11869.803)" fill-rule="evenodd" fill="url(#g)"/><path d="M10644,11504.737l10.736-10.737.523,17.228Z" transform="translate(-10640.86 -11490.831)" fill-rule="evenodd" fill="url(#h)"/><path d="M11320,11391h6v24.183Z" transform="translate(-11296.064 -11390.999)" fill-rule="evenodd" fill="url(#i)"/><path d="M11344,11598.046l3.569-6.155.8-1.353.892-1.538v18.09Z" transform="translate(-11319.326 -11582.909)" fill-rule="evenodd" fill="url(#j)"/><path d="M10542,12115l24.274,7.63H10542Z" transform="translate(-10542 -12092.726)" fill-rule="evenodd" fill="url(#k)"/><path d="M10805.676,12191.446l-9.509-5.446-7.167,5.446Z" transform="translate(-10781.4 -12161.541)" fill-rule="evenodd" fill="url(#l)"/><path d="M11026.769,12188.737,11022,12186l.062,5.446Z" transform="translate(-11007.233 -12161.541)" fill-rule="evenodd" fill="url(#m)"/><path d="M10542,11391h12.336l-5.722,5.691Z" transform="translate(-10542 -11390.999)" fill-rule="evenodd" fill="url(#n)"/></g><path d="M15751.46,11279a2.477,2.477,0,1,1-2.462,2.462A2.469,2.469,0,0,1,15751.46,11279Zm0,.523a1.957,1.957,0,0,1,1.97,1.938,1.983,1.983,0,0,1-1.97,1.968,1.956,1.956,0,0,1-1.938-1.968A1.931,1.931,0,0,1,15751.46,11279.523Zm1.2,1.261-.492.277a.692.692,0,0,0-.585-.247.778.778,0,0,0-.522.185.649.649,0,0,0-.185.492.7.7,0,0,0,.185.493.678.678,0,0,0,.491.154.716.716,0,0,0,.616-.247l.461.308a1.228,1.228,0,0,1-1.046.493,1.371,1.371,0,0,1-.924-.339,1.165,1.165,0,0,1-.215-1.508,1.549,1.549,0,0,1,.463-.431,1.662,1.662,0,0,1,.676-.154A1.273,1.273,0,0,1,15752.66,11280.784Z" transform="translate(-15585.479 -11279)" fill-rule="evenodd"/><g transform="translate(0 0.123)"><path d="M11486,12327.369l2.338-2.369,5.26,5.353h5.231l5.383,5.415-2.4,2.308-4.522-4.615-5.229.03Z" transform="translate(-11453.636 -12292.942)" fill-rule="evenodd"/><path d="M10434,11319.487V11283h36.489v36.486H10434Zm17.137-30-10.706,10.707,25.474,14.645Zm16.061,20.952v-24.12h-14.06Zm-29.874-8.215v13.936h24.213Zm12.307-15.905h-12.307v12.274Z" transform="translate(-10433.999 -11283.001)" fill-rule="evenodd"/></g><path d="M15284.983,11444.769h6.736v6.983h2.924V11436h-2.924v6.029h-6.736V11436H15282v15.752h2.984Z" transform="translate(-15132.848 -11431.17)"/><path d="M14717.184,11438.521c.615,2.063,1.385,4.433,2.184,6.738h-5.229c.8-2.368,1.661-4.676,2.432-6.738Zm4.584,13.23h3.291c-1.754-4.185-4.059-10.676-5.691-15.752h-4.676c-1.906,4.707-4.214,11.045-5.691,15.752h3.107c.369-1.2.77-2.523,1.231-3.937h6.891C14720.752,11449.26,14721.306,11450.645,14721.768,11451.752Z" transform="translate(-14577.478 -11431.17)"/><path d="M14213.829,11438.584v13.168h2.954V11436H14206.2a58.336,58.336,0,0,1-3.2,15.752h3.17a54.471,54.471,0,0,0,2.769-13.168Z" transform="translate(-14087.044 -11431.17)"/><path d="M13706.983,11438.584h6.737v13.168h2.954V11436H13704v15.752h2.983Z" transform="translate(-13603.396 -11431.17)"/><path d="M13149.476,11436h-3.568c-2.154,3.938-4.523,7.968-6.984,11.907V11436H13136v15.752h3.906c2.308-3.6,4.584-7.537,6.677-11.385v11.385h2.892Z" transform="translate(-13052.873 -11431.17)"/><path d="M12643.983,11451.752v-5.2h5.292c3.046,0,4.307-2.43,4.307-5.138,0-3.077-1.046-5.414-4.368-5.414H12641v15.752Zm0-7.69v-5.54h4.461c1.23,0,1.877.954,1.877,2.861,0,1.785-.707,2.679-1.938,2.679Z" transform="translate(-12573.101 -11431.17)"/><path d="M12018.984,11443.875l.031-2.06c.03-2,1.569-2.369,3.538-2.461v8.891C12019.476,11448.152,12018.892,11447.506,12018.984,11443.875Zm10.245,0v1.54c-.124,2.03-.862,2.769-3.724,2.83v-8.891c3.108.092,3.415,1.137,3.692,2.49A14.576,14.576,0,0,1,12029.229,11443.875Zm-6.676-7.875v.892c-6.185.34-6.554,3.077-6.554,6.954,0,3.908.4,6.614,6.554,6.859v1.047h2.952v-1.047c5.262-.245,7.016-2,6.77-6.859-.031-.585,0-1.909-.092-2.463-.432-2.983-2.186-4.183-6.678-4.4V11436Z" transform="translate(-11967.328 -11431.17)"/><path d="M12032.847,12069.153a20.857,20.857,0,0,1-.861,4.769H12031l.247,2.461h.831v-1.507h4.614v1.507h.83l.246-2.461h-1.076v-4.769Zm2.8.954v3.814h-2.554a23.074,23.074,0,0,0,.738-3.814Zm6.86,4.769h1.046v-5.723h-1.046a38.8,38.8,0,0,1-2.707,4.153v-4.153h-1.077v5.723h1.077a37.9,37.9,0,0,0,2.707-4Zm3.539-2.646h.861c1.076,0,1.507.246,1.507.923,0,.707-.339.922-1.6.922a4.858,4.858,0,0,1-1.724-.245l-.246.953a7.3,7.3,0,0,0,1.97.245c1.846,0,2.707-.4,2.707-1.69,0-.832-.339-1.477-1.538-1.509,1.138-.092,1.384-.676,1.384-1.414,0-.984-.677-1.415-2.553-1.415a9.04,9.04,0,0,0-1.938.215l.246.923a6.479,6.479,0,0,1,1.692-.215c1.139,0,1.445.215,1.445.707,0,.585-.369.738-1.353.738h-.861Zm9.566-1.016c0-1.724-.737-2.215-2.43-2.215a7.849,7.849,0,0,0-2.092.275l.245.924a4.888,4.888,0,0,1,1.693-.276c1.23,0,1.538.276,1.538,1.477a6.279,6.279,0,0,0-1.509-.185c-1.322,0-2.244.277-2.244,1.877,0,1.507.614,1.937,2.368,1.937a7.251,7.251,0,0,0,2.43-.46Zm-1.045,2.707a3.628,3.628,0,0,1-1.323.246c-1.047,0-1.292-.153-1.292-1.108,0-.892.338-1.014,1.292-1.014a5.558,5.558,0,0,1,1.323.122Zm6.491.954h1.046v-5.723h-1.046a38.8,38.8,0,0,1-2.707,4.153v-4.153h-1.077v5.723h1.077a38.049,38.049,0,0,0,2.707-4Zm-2.954-7.877c0,1.016.586,1.478,1.6,1.478,1.046,0,1.6-.462,1.6-1.478h-.739c0,.586-.368.708-.829.708-.556,0-.832-.122-.832-.708Zm9.415,5.262v2.615h1.076v-5.723h-1.076v2.185h-2.646v-2.185h-1.077v5.723h1.077v-2.615Zm9.659,2.615h1.047v-5.723h-1.047a43.688,43.688,0,0,1-2.707,4.153v-4.153h-1.076v5.723h1.076a37.6,37.6,0,0,0,2.707-4Zm6.462-2.615v2.615h1.077v-5.723h-1.077v2.185h-2.676v-2.185h-1.047v5.723h1.047v-2.615Zm5.2-2.153h2.091v-.954h-5.261v.954h2.093v4.769h1.077Zm7.352,3.723a6.374,6.374,0,0,1-1.63.245c-1.17,0-1.693-.308-1.723-1.845h3.906c.062-2.616-.707-3.23-2.4-3.23s-2.646.707-2.646,2.983c0,2.338,1.046,3.045,2.737,3.045a7.548,7.548,0,0,0,1.938-.337Zm-1.814-3.938c.923,0,1.262.246,1.322,1.477h-2.831C12092.962,12070.229,12093.331,12069.892,12094.378,12069.892Zm4.8.246a4.63,4.63,0,0,1,1.354-.215c1.169,0,1.539.338,1.539,2.091,0,1.632-.37,2.062-1.539,2.062-.738,0-1.354-.245-1.354-.677Zm-1.046,6.892h1.046v-2.4a2.73,2.73,0,0,0,1.477.4c1.661,0,2.554-.707,2.554-3.045s-.83-2.983-2.677-2.983a6.773,6.773,0,0,0-2.4.431Zm9.6-3.015h-1.938v-1.815h1.907c.554,0,.8.215.8.86C12108.5,12073.768,12108.284,12074.015,12107.73,12074.015Zm-1.938-2.707v-2.154h-1.077v5.723h3.169c1.2,0,1.753-.523,1.753-1.816a1.537,1.537,0,0,0-1.753-1.752Zm9.6,2.522a6.394,6.394,0,0,1-1.632.245c-1.168,0-1.691-.308-1.691-1.845h3.876c.062-2.616-.677-3.23-2.4-3.23-1.692,0-2.614.707-2.614,2.983,0,2.338,1.014,3.045,2.707,3.045a7.775,7.775,0,0,0,1.968-.337Zm-1.817-3.938c.925,0,1.262.246,1.324,1.477h-2.83C12112.16,12070.229,12112.561,12069.892,12113.574,12069.892Zm4.831.246a4.251,4.251,0,0,1,1.323-.215c1.169,0,1.569.338,1.569,2.091,0,1.632-.4,2.062-1.569,2.062-.708,0-1.323-.245-1.323-.677Zm-1.077,6.892h1.077v-2.4a2.533,2.533,0,0,0,1.446.4c1.661,0,2.554-.707,2.554-3.045s-.831-2.983-2.677-2.983a6.779,6.779,0,0,0-2.4.431Zm11.2-5.814c0-1.724-.769-2.215-2.43-2.215a7.681,7.681,0,0,0-2.093.275l.215.924a4.888,4.888,0,0,1,1.693-.276c1.262,0,1.567.276,1.567,1.477a6.511,6.511,0,0,0-1.537-.185c-1.293,0-2.246.277-2.246,1.877,0,1.507.646,1.937,2.368,1.937a7.291,7.291,0,0,0,2.462-.46Zm-1.047,2.707a3.789,3.789,0,0,1-1.353.246c-1.016,0-1.293-.153-1.293-1.108,0-.892.339-1.014,1.323-1.014a5.893,5.893,0,0,1,1.322.122Z" transform="translate(-11981.868 -12042.756)"/></svg>