<svg xmlns="http://www.w3.org/2000/svg" xmlns:xlink="http://www.w3.org/1999/xlink" viewBox="0 0 168.4 45.3">
  <defs>
    <linearGradient id="a" x1="-.1" y1=".1" x2="1.1" y2=".9" gradientUnits="objectBoundingBox">
      <stop offset="0" stop-color="#f2e808"/>
      <stop offset="1" stop-color="#65b761"/>
    </linearGradient>
    <linearGradient id="b" x1=".1" y1=".2" x2=".9" y2=".8" gradientUnits="objectBoundingBox">
      <stop offset="0" stop-color="#f7d600"/>
      <stop offset="1" stop-color="#d9312d"/>
    </linearGradient>
    <linearGradient id="d" x1=".3" y1=".1" x2=".7" y2=".9" gradientUnits="objectBoundingBox">
      <stop offset="0" stop-color="#31afb3"/>
      <stop offset="1" stop-color="#128ac7"/>
    </linearGradient>
    <linearGradient id="c" x1="-.1" y1=".1" x2="1.1" y2=".9" gradientUnits="objectBoundingBox">
      <stop offset="0" stop-color="#cf336b"/>
      <stop offset=".4" stop-color="#8e3879"/>
      <stop offset="1" stop-color="#4d3d87"/>
    </linearGradient>
    <linearGradient id="e" x1=".8" y1=".3" x2=".2" y2=".7" xlink:href="#a"/>
    <linearGradient id="f" x1=".2" y1=".1" x2=".8" y2=".9" xlink:href="#b"/>
    <linearGradient id="g" x1="0" y1=".3" x2="1" y2=".7" xlink:href="#b"/>
    <linearGradient id="h" x1=".2" y1="0" x2=".8" y2="1" xlink:href="#b"/>
    <linearGradient id="i" x1="1.2" y1=".1" x2="-.2" y2=".9" xlink:href="#c"/>
    <linearGradient id="j" x1="1.5" y1=".6" x2="-.5" y2=".4" xlink:href="#c"/>
    <linearGradient id="k" x1=".6" y1=".6" x2=".4" y2=".4" xlink:href="#d"/>
    <linearGradient id="l" x1=".8" y1="1.5" x2=".2" y2="-.5" xlink:href="#d"/>
    <linearGradient id="m" x1="1.1" y1=".8" x2="-.1" y2=".2" gradientUnits="objectBoundingBox">
      <stop offset="0" stop-color="#31afb3"/>
      <stop offset="1" stop-color="#0079b5"/>
    </linearGradient>
    <linearGradient id="n" x1=".4" y1="-.2" x2=".6" y2="1.2" xlink:href="#a"/>
  </defs>
  <g fill-rule="evenodd">
    <path d="M10542 11391h12.3l-12.3 12.3Z" transform="translate(-10538.7 -11387.6)" fill="url(#a)"/>
    <path d="m10644 11504.7 10.7-10.7 14.8 25.4Z" transform="translate(-10637.5 -11487.4)" fill="url(#b)"/>
    <path d="m10542 11910 24.3 14h-24.3Z" transform="translate(-10538.7 -11890.6)" fill="url(#d)"/>
    <path d="m11057 11391 14 24.2v-24.2Z" transform="translate(-11037.8 -11387.6)" fill="url(#c)"/>
    <path d="m10542 11396.4 12.3-5.4-12.3 12.3Z" transform="translate(-10538.7 -11387.6)" fill="url(#e)"/>
    <path d="m10644 11504.7 10.7-10.7 7.6 21.3Z" transform="translate(-10637.5 -11487.4)" fill="url(#f)"/>
    <path d="m10717 11885 15.7.3 2 3.5-5 3.5Z" transform="translate(-10708.3 -11866.4)" fill="url(#g)"/>
    <path d="m10644 11504.7 10.7-10.7.6 17.2Z" transform="translate(-10637.5 -11487.4)" fill="url(#h)"/>
    <path d="M11320 11391h6v24.2Z" transform="translate(-11292.7 -11387.6)" fill="url(#i)"/>
    <path d="m11344 11598 3.6-6.1.8-1.4.9-1.5v18Z" transform="translate(-11316 -11579.5)" fill="url(#j)"/>
    <path d="m10542 12115 24.3 7.6h-24.3Z" transform="translate(-10538.7 -12089.3)" fill="url(#k)"/>
    <path d="m10805.7 12191.4-9.5-5.4-7.2 5.4Z" transform="translate(-10778 -12158)" fill="url(#l)"/>
    <path d="m11026.8 12188.7-4.8-2.7v5.4Z" transform="translate(-11004 -12158)" fill="url(#m)"/>
    <path d="M10542 11391h12.3l-5.7 5.7Z" transform="translate(-10538.7 -11387.6)" fill="url(#n)"/>
  </g>
  <path d="M166 0a2.5 2.5 0 1 1-2.5 2.5A2.5 2.5 0 0 1 166 0Zm0 .5a2 2 0 0 1 2 2 2 2 0 0 1-2 2 2 2 0 0 1-2-2 2 2 0 0 1 2-2Zm1.2 1.3-.5.3a.7.7 0 0 0-.6-.3.8.8 0 0 0-.5.2.6.6 0 0 0-.2.5.7.7 0 0 0 .2.5.7.7 0 0 0 .5.1.7.7 0 0 0 .6-.2l.4.3a1.2 1.2 0 0 1-1 .5 1.4 1.4 0 0 1-1-.3 1.2 1.2 0 0 1-.1-1.6 1.5 1.5 0 0 1 .4-.4 1.7 1.7 0 0 1 .7-.1 1.3 1.3 0 0 1 1 .5Z" fill-rule="evenodd"/>
  <g fill-rule="evenodd">
    <path d="m32.4 34.6 2.3-2.4 5.3 5.3h5.2l5.4 5.4-2.4 2.4-4.5-4.7h-5.3Z"/>
    <path d="M0 36.6V.1h36.5v36.5H0Zm17.1-30L6.4 17.3 32 32Zm16.1 21V3.4h-14ZM3.3 19.3v14h24.2ZM15.6 3.4H3.3v12.3Z"/>
  </g>
  <path d="M152.1 13.6h6.8v7h2.9V4.8h-3v6h-6.7v-6h-3v15.8h3Zm-12.4-6.2L142 14h-5.2a223 223 0 0 1 2.4-6.7Zm4.6 13.2h3.3c-1.8-4.2-4-10.7-5.7-15.8h-4.7c-1.9 4.7-4.2 11-5.7 15.8h3.1l1.3-4h6.9a88 88 0 0 0 1.5 4ZM126.8 7.4v13.2h3V4.8h-10.6a58.3 58.3 0 0 1-3.2 15.8h3.1A54.5 54.5 0 0 0 122 7.4Zm-23.2 0h6.7v13.2h3V4.8h-12.7v15.8h3Zm-7-2.6H93c-2.1 4-4.5 8-7 12v-12h-2.9v15.8h4c2.2-3.6 4.5-7.6 6.6-11.4v11.4h2.9ZM70.9 20.6v-5.2h5.3c3 0 4.3-2.4 4.3-5.2 0-3-1-5.4-4.4-5.4H68v15.8Zm0-7.7V7.4h4.4c1.3 0 2 1 2 2.8 0 1.8-.8 2.7-2 2.7Zm-19.2-.2v-2c0-2 1.6-2.4 3.5-2.5V17c-3-.1-3.6-.8-3.5-4.4Zm10.2 0v1.5c-.1 2-.9 2.8-3.7 2.9V8c3 .2 3.4 1.2 3.7 2.6a14.6 14.6 0 0 1 0 2Zm-6.7-7.9v1c-6.2.3-6.5 3-6.5 6.9 0 3.9.4 6.6 6.5 6.8v1h3v-1c5.2-.2 7-2 6.7-6.8v-2.5c-.5-3-2.2-4.2-6.7-4.4v-1ZM51 26.4a20.9 20.9 0 0 1-.9 4.8h-1l.3 2.4h.8v-1.5h4.6v1.5h.9l.2-2.4h-1v-4.8Zm2.8 1v3.8h-2.6a23 23 0 0 0 .8-3.8Zm6.8 4.7h1v-5.7h-1a38.8 38.8 0 0 1-2.7 4.2v-4.2h-1v5.7h1a37.9 37.9 0 0 0 2.7-4Zm3.6-2.6h.8c1.1 0 1.5.2 1.5.9s-.3 1-1.6 1a4.9 4.9 0 0 1-1.7-.3l-.2 1a7.3 7.3 0 0 0 2 .2c1.8 0 2.7-.4 2.7-1.7 0-.8-.4-1.5-1.6-1.5 1.2-.1 1.4-.7 1.4-1.4 0-1-.7-1.5-2.6-1.5a9 9 0 0 0-1.9.3l.3.9a6.5 6.5 0 0 1 1.6-.2c1.2 0 1.5.2 1.5.7 0 .6-.4.7-1.4.7h-.8Zm9.5-1c0-1.8-.7-2.3-2.4-2.3a7.8 7.8 0 0 0-2 .3l.2 1a4.9 4.9 0 0 1 1.7-.3c1.2 0 1.5.2 1.5 1.4a6.3 6.3 0 0 0-1.5-.1c-1.3 0-2.3.2-2.3 1.8 0 1.5.7 2 2.4 2a7.3 7.3 0 0 0 2.4-.5Zm-1 2.7a3.6 3.6 0 0 1-1.3.2c-1 0-1.3-.1-1.3-1.1 0-.9.3-1 1.3-1a5.6 5.6 0 0 1 1.3.1Zm6.5 1h1v-5.8h-1a38.8 38.8 0 0 1-2.7 4.1v-4.1h-1v5.7h1a38 38 0 0 0 2.7-4Zm-3-8c0 1 .6 1.5 1.6 1.5s1.6-.4 1.6-1.5h-.7c0 .6-.4.8-.8.8-.6 0-.9-.2-.9-.8Zm9.5 5.3v2.6h1v-5.7h-1v2.2H83v-2.2h-1v5.7h1v-2.6Zm9.6 2.6h1v-5.7h-1a43.7 43.7 0 0 1-2.7 4.1v-4.1h-1v5.7h1a37.6 37.6 0 0 0 2.7-4Zm6.5-2.6v2.6h1v-5.7h-1v2.2H99v-2.2h-1v5.7h1v-2.6Zm5.2-2.1h2v-1h-5.2v1h2V32h1.2Zm7.3 3.7a6.4 6.4 0 0 1-1.6.2c-1.2 0-1.7-.3-1.7-1.8h3.9c0-2.6-.7-3.3-2.4-3.3s-2.7.8-2.7 3c0 2.4 1 3 2.8 3a7.5 7.5 0 0 0 2-.3Zm-1.8-4c1 0 1.3.3 1.3 1.5H111c0-1.1.5-1.5 1.5-1.5Zm4.8.3a4.6 4.6 0 0 1 1.4-.2c1.1 0 1.5.3 1.5 2s-.4 2.1-1.5 2.1c-.8 0-1.4-.2-1.4-.7Zm-1 6.9h1v-2.4a2.7 2.7 0 0 0 1.5.4c1.6 0 2.5-.7 2.5-3s-.8-3-2.6-3a6.8 6.8 0 0 0-2.4.4Zm9.6-3h-2v-1.9h2c.5 0 .7.3.7.9 0 .7-.2 1-.7 1Zm-2-2.7v-2.2h-1v5.7h3.1c1.2 0 1.8-.5 1.8-1.8a1.5 1.5 0 0 0-1.8-1.7Zm9.6 2.5a6.4 6.4 0 0 1-1.6.2c-1.2 0-1.7-.3-1.7-1.8h3.9c0-2.6-.7-3.3-2.4-3.3s-2.6.8-2.6 3c0 2.4 1 3 2.7 3a7.8 7.8 0 0 0 2-.3Zm-1.8-4c1 0 1.3.3 1.3 1.5h-2.8c0-1.1.5-1.5 1.5-1.5Zm4.8.3a4.3 4.3 0 0 1 1.4-.2c1.1 0 1.5.3 1.5 2s-.4 2.1-1.5 2.1c-.7 0-1.4-.2-1.4-.7Zm-1 6.9h1v-2.4a2.5 2.5 0 0 0 1.5.4c1.6 0 2.5-.7 2.5-3s-.8-3-2.6-3a6.8 6.8 0 0 0-2.4.4Zm11.2-5.8c0-1.8-.8-2.3-2.5-2.3a7.7 7.7 0 0 0-2 .3l.2 1a4.9 4.9 0 0 1 1.6-.3c1.3 0 1.6.2 1.6 1.4a6.5 6.5 0 0 0-1.5-.1c-1.3 0-2.3.2-2.3 1.8 0 1.5.7 2 2.4 2a7.3 7.3 0 0 0 2.5-.5Zm-1 2.7a3.8 3.8 0 0 1-1.4.2c-1 0-1.3-.1-1.3-1 0-1 .3-1.1 1.3-1.1a5.9 5.9 0 0 1 1.3.1Z"/>
</svg>