<svg xmlns="http://www.w3.org/2000/svg" viewBox="0 0 89 89" width="100" height="100">
  <g data-name="Сгруппировать 19">
    <g data-name="Сгруппировать 18">
      <path data-name="Контур 89" d="M84.5 80.1a4.4 4.4 0 0 0-.7 0 6 6 0 0 0-10.4 0 4.4 4.4 0 0 0-.7 0 4.5 4.5 0 0 0-4.5 4.4 4.4 4.4 0 0 0 .3 1.5h-6.2v-8.9h7.4a1.5 1.5 0 0 0 1.5-1.4V16.3a1.5 1.5 0 0 0-1.5-1.5H25.2a1.5 1.5 0 0 0-1.5 1.5v71.2a1.5 1.5 0 0 0 1.5 1.5h59.3a4.5 4.5 0 1 0 0-8.9ZM62.3 17.8h6v8.9h-6Zm0 11.9h6v8.9h-6Zm0 11.8h6v9h-6Zm0 11.9h6v8.9h-6Zm0 11.9h6v8.9h-6ZM32.6 86h-5.9v-8.9h6Zm0-11.8h-5.9v-9h6Zm0-11.9h-5.9v-8.9h6Zm0-11.9h-5.9v-8.9h6Zm0-11.8h-5.9v-9h6Zm0-11.9h-5.9v-8.9h6Zm9 59.3h-6v-8.9h6Zm0-11.8h-6v-9h6Zm0-11.9h-6v-8.9h6Zm0-11.9h-6v-8.9h6Zm0-11.8h-6v-9h6Zm0-11.9h-6v-8.9h6ZM50.3 86h-5.9v-8.9h6Zm0-11.8h-5.9v-9h6Zm0-11.9h-5.9v-8.9h6Zm0-11.9h-5.9v-8.9h6Zm0-11.8h-5.9v-9h6Zm0-12-5.9.1v-8.9h6Zm9 59.4h-6v-8.9h6Zm0-11.8h-6v-9h6Zm0-12h-6v-8.8h6Zm0-11.8h-6v-8.9h6Zm0-11.8h-6v-9h6Zm0-12h-6v-8.8h6ZM84.4 86H72.7a1.5 1.5 0 0 1 0-3 1.5 1.5 0 0 1 .8.3 1.5 1.5 0 0 0 2.2-1 3 3 0 0 1 5.8 0 1.5 1.5 0 0 0 2.2 1 1.5 1.5 0 0 1 2.3 1.2 1.5 1.5 0 0 1-1.5 1.5Z"/>
      <path data-name="Контур 90" d="M32.6 10.4V5.9H43a1.5 1.5 0 0 0 1.5-1.5V3h6v1.5a1.5 1.5 0 0 0 1.4 1.4h10.4v3H37.1a1.5 1.5 0 1 0 0 3h37v61.5a1.5 1.5 0 0 0 3 0v-63a1.5 1.5 0 0 0-1.4-1.5H65.3V4.4A1.5 1.5 0 0 0 63.8 3H53.4V1.5A1.5 1.5 0 0 0 51.9 0H43a1.5 1.5 0 0 0-1.5 1.5V3H31.1a1.5 1.5 0 0 0-1.4 1.5v4.4H19.3a1.5 1.5 0 0 0-1.5 1.5V86H8.9v-6a7.4 7.4 0 0 0 6-7.3c0-.2-.2-19.3-7.5-19.3S0 72.4 0 72.7A7.4 7.4 0 0 0 6 80v6H1.4a1.5 1.5 0 0 0 0 3h17.8a1.5 1.5 0 0 0 1.5-1.5V12H31a1.5 1.5 0 0 0 1.5-1.5ZM3 72.7c0-7.4 2-16.3 4.4-16.3S12 65.3 12 72.7a4.5 4.5 0 0 1-9 0Z"/>
    </g>
  </g>
</svg>
