<svg xmlns="http://www.w3.org/2000/svg" width="18.1" height="19.1">
  <g fill-rule="evenodd">
    <path d="M4.9 19.1a.9.9 0 0 1-.4 0 .8.8 0 0 1-.4-.7v-1.6l-.1-.9a5.4 5.4 0 0 1-2.8-2.1 7 7 0 0 1-1-3.1 16.4 16.4 0 0 1 .2-6A5.3 5.3 0 0 1 4 .7 13.6 13.6 0 0 1 8.8 0h1.5a12.7 12.7 0 0 1 3 .5 6 6 0 0 1 3.2 1.7 5.8 5.8 0 0 1 1.2 2.3A15.6 15.6 0 0 1 18 10a10.3 10.3 0 0 1-.5 2.7 5.2 5.2 0 0 1-3.8 3.3 19.9 19.9 0 0 1-5 .6H8l-2.5 2.2a1.6 1.6 0 0 1-.1.1.7.7 0 0 1-.5.2ZM8.8 1.6a12 12 0 0 0-4.3.6A3.8 3.8 0 0 0 1.9 5a15.2 15.2 0 0 0-.2 5.5 5.4 5.4 0 0 0 .8 2.4 3.8 3.8 0 0 0 2.2 1.6 1 1 0 0 1 .8 1v1.2L7 15.6A1.5 1.5 0 0 1 8 15h.8a18 18 0 0 0 4.5-.5 3.6 3.6 0 0 0 2.7-2.3 8.6 8.6 0 0 0 .5-2.3 14.5 14.5 0 0 0-.3-5 4.7 4.7 0 0 0-.9-1.7A4.6 4.6 0 0 0 13 2a13 13 0 0 0-2.8-.4H8.8Z"/>
    <path d="M13 11.6a2 2 0 0 1-.6 1.3 1.2 1.2 0 0 1-1.4.3l-1.2-.5a11.4 11.4 0 0 1-3.2-2.5 11 11 0 0 1-2.5-4A.9.9 0 0 1 4.4 5a8 8 0 0 1 .9-.7.6.6 0 0 1 .7 0 5.3 5.3 0 0 1 1.5 2 .6.6 0 0 1-.2.7l-.3.3a.7.7 0 0 0-.3.8 4 4 0 0 0 1.7 2.1 5.7 5.7 0 0 0 .9.4.5.5 0 0 0 .6-.2l.3-.3a.8.8 0 0 1 1-.2c.5.3 1.1.7 1.6 1.2.2 0 .2.3.3.4ZM13.9 9a.4.4 0 0 1-.4-.4 4.9 4.9 0 0 0-4.9-4.8.4.4 0 0 1-.4-.4.4.4 0 0 1 .4-.4 5.7 5.7 0 0 1 5.7 5.6.4.4 0 0 1-.4.4Z"/>
    <path d="M12.5 9a.4.4 0 0 1-.4-.4 3.4 3.4 0 0 0-3.5-3.4.4.4 0 0 1-.4-.4.4.4 0 0 1 .4-.4A4.2 4.2 0 0 1 13 8.6a.4.4 0 0 1-.4.4Z"/>
    <path d="M11 9a.4.4 0 0 1-.4-.4 2 2 0 0 0-2-2 .4.4 0 0 1 0-.8 2.8 2.8 0 0 1 2.8 2.8.4.4 0 0 1-.4.4Z"/>
  </g>
</svg>