<svg xmlns="http://www.w3.org/2000/svg" viewBox="0 0 74 74" width="100" height="100">
  <path data-name="Контур 91" d="M72.1 31.9a1.2 1.2 0 0 0 1.9-1v-7.5a1.2 1.2 0 0 0-.6-1L37.6.2a1.2 1.2 0 0 0-1.3 0L19.8 10.5V7.4a1.2 1.2 0 0 0-1.2-1.2h-5a1.2 1.2 0 0 0-1.2 1.2v7.7L.6 22.4a1.2 1.2 0 0 0-.6 1v7.4a1.2 1.2 0 0 0 1.9 1l3-1.8v42.8A1.2 1.2 0 0 0 6.2 74h61.6a1.2 1.2 0 0 0 1.3-1.2V60A7.4 7.4 0 0 0 71 47l-.4-.2a8.6 8.6 0 0 0-1.6-9.7V30ZM14.8 8.6h2.5V12l-2.5 1.6ZM2.5 24.1 37 2.7 71.5 24v4.5l-33.9-21a1.2 1.2 0 0 0-1.3 0l-33.8 21Zm12.3 47.4v-32h14.8v32Zm39.5 0V54.3h2.4v17.2Zm12.3 0h-7.4v-11h7.4Zm5-18.5a5 5 0 0 1-4 4.9 4.6 4.6 0 0 1-1 0h-7.4V53a1.2 1.2 0 0 0-1.2-1.2h-5a1.2 1.2 0 0 0-1.2 1.2v5h-8.6a3.7 3.7 0 0 1-3.7-3.7 3.6 3.6 0 0 1 .5-1.9 6.2 6.2 0 0 0 4.4 1.9 1.8 1.8 0 0 0 .5 0 1.2 1.2 0 0 0-.5-2.5 3.7 3.7 0 0 1-3.7-3.7 3.8 3.8 0 0 1 0-.5 3.7 3.7 0 0 1 2-2.8 3.4 3.4 0 0 1 .9-.3 3.7 3.7 0 0 1 2.6.4 1.2 1.2 0 1 0 1.2-2.2 6.2 6.2 0 0 0-3-.7h-.3a6.2 6.2 0 0 0-.7 0h-.2a5 5 0 0 1 4-4.9 4.5 4.5 0 0 1 .9-.1 4.9 4.9 0 0 1 3 1 1.2 1.2 0 0 0 1.4-2 7.3 7.3 0 0 0-4.3-1.5 6.2 6.2 0 0 1 .4-1l.1-.4a6 6 0 0 1 .4-.6l.2-.4a6.2 6.2 0 0 1 .5-.5l.3-.3a6.2 6.2 0 0 1 .5-.5l.4-.2a6.4 6.4 0 0 1 .6-.4l.4-.1a6.3 6.3 0 0 1 .7-.3h.4a6 6 0 0 1 2.4 0h.4a6 6 0 0 1 .8.3l.3.2a6.5 6.5 0 0 1 .7.3l.4.3a6.3 6.3 0 0 1 .5.5l.3.4a6.1 6.1 0 0 1 .5.5 4.8 4.8 0 0 1 .2.5 5.6 5.6 0 0 1 .3.6l.2.5a5.9 5.9 0 0 1 .2.6v.6a5.7 5.7 0 0 1 .1.6 1.2 1.2 0 0 0 0 .2 6 6 0 0 1-1 3.2 1.2 1.2 0 1 0 2.1 1.3 8.5 8.5 0 0 0 1.3-3.4 6.2 6.2 0 0 1 5.6 8.9l-.3-.1a7 7 0 0 0-1.5-.2 7.3 7.3 0 0 0-6 3 1.2 1.2 0 1 0 2 1.5 4.9 4.9 0 0 1 4-2 4.7 4.7 0 0 1 1 .1 3.8 3.8 0 0 1 1 .3 4.4 4.4 0 0 1 1 .6 5 5 0 0 1 2 4Zm-5-24.5v6.9l-.2-.1-.6-.2-.3-.2a9.7 9.7 0 0 0-1.4-.3H63l-.1-.3a6.8 6.8 0 0 0-.2-.9l-.1-.3-.2-.5-.1-.2-.3-.6v-.2a7.5 7.5 0 0 0-.5-.6v-.2l-.5-.5-.1-.2-.4-.4-.2-.2-.4-.3-.2-.2-.4-.3-.3-.2a6.8 6.8 0 0 0-1.4-.7l-.5-.2-.3-.1a9.7 9.7 0 0 0-.8-.2h-.5l-.3-.1a8.3 8.3 0 0 0-.8 0H53a8 8 0 0 0-.5.1h-.3l-.5.2-.4.1-.4.2-.3.1-.5.2a8 8 0 0 0-1.3 1l-.3.1-.3.3a10.4 10.4 0 0 0-1.5 2l-.2.3-.2.4-.1.3-.2.4-.1.4-.1.4-.1.4-.1.5v.3l-.2.1-.5.2a7 7 0 0 0-.6.3l-.4.3a6 6 0 0 0-.6.4 7.7 7.7 0 0 0-.8.8 4.7 4.7 0 0 0-.4.4l-.4.6-.2.4a7 7 0 0 0-.3.7l-.2.4a7.2 7.2 0 0 0-.2.8l-.1.4a7.2 7.2 0 0 0 0 2.4 6 6 0 0 0-.6.4 6 6 0 0 0-.5.6l-.2.2a6 6 0 0 0-.3.5l-.2.2-.2.5-.1.2-.2.5v.3l-.2.5v.3a5.6 5.6 0 0 0 0 1.7v.3a6.2 6.2 0 0 0 .2.7v.2a6.2 6.2 0 0 0-.6.8 6 6 0 0 0-.5 1v.1a6 6 0 0 0-.3 1v.1a6.3 6.3 0 0 0-.1 1 6.2 6.2 0 0 0 6.2 6.2h8.6v11.1H32.1V38.2a1.2 1.2 0 0 0-1.3-1.2H13.6a1.2 1.2 0 0 0-1.3 1.2v33.3H7.4v-43L37 10Zm0 0"/>
  <path data-name="Контур 92" d="M37 30.8a7.4 7.4 0 1 0-7.4-7.4 7.4 7.4 0 0 0 7.4 7.4Zm-4.8-6.1h3.6v3.5a5 5 0 0 1-3.6-3.5Zm6 3.5v-3.5h3.6a5 5 0 0 1-3.6 3.5Zm3.6-6h-3.6v-3.5a5 5 0 0 1 3.6 3.5Zm-6-3.5v3.5h-3.6a5 5 0 0 1 3.6-3.5Zm0 0"/>
</svg>