<svg xmlns="http://www.w3.org/2000/svg" width="19" height="19">
  <path d="M19 9.3a9.3 9.3 0 0 1-13.8 8L0 19l1.7-5A9.1 9.1 0 0 1 .4 9.3a9.3 9.3 0 0 1 18.6 0ZM9.7 1.5a7.8 7.8 0 0 0-7.9 7.8 7.7 7.7 0 0 0 1.5 4.5l-1 3 3-1A7.8 7.8 0 1 0 9.8 1.5Zm4.7 9.9a1.4 1.4 0 0 0-.4-.3c-.3 0-1.4-.6-1.6-.7-.2 0-.3-.1-.5.1l-.7.9c-.2.2-.3.2-.5 0a5.7 5.7 0 0 1-1.9-1 6.4 6.4 0 0 1-1.2-1.6.3.3 0 0 1 0-.5l.4-.4a1.2 1.2 0 0 0 .2-.4.4.4 0 0 0 0-.4l-.7-1.7C7.3 5 7.1 5 7 5h-.5a.8.8 0 0 0-.6.3 2.5 2.5 0 0 0-.8 2 4.4 4.4 0 0 0 1 2.3A9.3 9.3 0 0 0 10 13c2.3 1 2.3.6 2.7.6a2.4 2.4 0 0 0 1.6-1.1 2 2 0 0 0 .1-1.1Z" fill-rule="evenodd"/>
</svg>